<svg width="80" height="115" viewBox="0 0 80 115" fill="none" xmlns="http://www.w3.org/2000/svg">
<path d="M14.0798 86.25H11.5448L10.7198 84.21H5.85977L5.03477 86.25H2.58977L7.14977 75.75H9.59477L14.0798 86.25ZM9.95477 82.305L8.30477 78.225L6.63977 82.305H9.95477ZM25.9716 86.25H23.6616V81.855C23.6616 81.385 23.5391 80.9925 23.2941 80.6775C23.0491 80.3625 22.6416 80.205 22.0716 80.205C21.4216 80.275 20.9491 80.5025 20.6541 80.8875C20.3591 81.2725 20.2116 81.735 20.2116 82.275V86.25H17.9016V75.12H20.2116V79.605C20.7916 78.615 21.7216 78.11 23.0016 78.09C23.8516 78.09 24.5591 78.345 25.1241 78.855C25.6891 79.365 25.9716 80.14 25.9716 81.18V86.25ZM38.7037 86.25H36.3937V81.855C36.3937 81.385 36.2712 80.9925 36.0262 80.6775C35.7812 80.3625 35.3737 80.205 34.8037 80.205C34.1537 80.275 33.6837 80.5025 33.3937 80.8875C33.1037 81.2725 32.9587 81.735 32.9587 82.275V86.25H30.6487V78.18H32.9587V79.59C33.5387 78.59 34.4687 78.09 35.7487 78.09C36.2537 78.09 36.7312 78.1925 37.1812 78.3975C37.6312 78.5975 38.0012 78.9275 38.2912 79.3875C38.5662 79.8425 38.7037 80.44 38.7037 81.18V86.25ZM47.0571 86.34C46.1171 86.34 45.3246 86.155 44.6796 85.785C44.0046 85.39 43.5096 84.88 43.1946 84.255C42.8796 83.63 42.7221 82.95 42.7221 82.215C42.7221 81.315 42.9146 80.56 43.2996 79.95C43.7146 79.315 44.2521 78.85 44.9121 78.555C45.5721 78.255 46.2871 78.105 47.0571 78.105C48.2871 78.105 49.3146 78.455 50.1396 79.155C50.9646 79.855 51.3771 80.875 51.3771 82.215C51.3771 82.745 51.2921 83.2575 51.1221 83.7525C50.9571 84.2425 50.6971 84.6825 50.3421 85.0725C49.9921 85.4625 49.5446 85.7725 48.9996 86.0025C48.4546 86.2275 47.8071 86.34 47.0571 86.34ZM47.0571 84.465C47.6071 84.465 48.0796 84.2775 48.4746 83.9025C48.8696 83.5275 49.0671 82.975 49.0671 82.245C49.0671 81.515 48.8696 80.9625 48.4746 80.5875C48.0796 80.2125 47.6071 80.025 47.0571 80.025C46.4971 80.025 46.0196 80.2125 45.6246 80.5875C45.2296 80.9625 45.0321 81.515 45.0321 82.245C45.0321 82.975 45.2296 83.5275 45.6246 83.9025C46.0196 84.2775 46.4971 84.465 47.0571 84.465ZM58.2743 86.34C57.7643 86.34 57.2868 86.2375 56.8418 86.0325C56.4018 85.8275 56.0418 85.49 55.7618 85.02C55.4968 84.565 55.3643 83.975 55.3643 83.25V78.18H57.6743V82.59C57.6743 83.18 57.8218 83.6 58.1168 83.85C58.4118 84.1 58.7693 84.225 59.1893 84.225C59.8093 84.145 60.2618 83.915 60.5468 83.535C60.8318 83.155 60.9743 82.7 60.9743 82.17V78.18H63.2693V86.25H60.9743V84.825C60.3843 85.835 59.4843 86.34 58.2743 86.34ZM71.3267 86.34C70.4867 86.34 69.7842 86.155 69.2192 85.785C68.6292 85.385 68.1967 84.87 67.9217 84.24C67.6517 83.605 67.5167 82.92 67.5167 82.185C67.5167 81.265 67.6842 80.505 68.0192 79.905C68.3742 79.28 68.8367 78.8225 69.4067 78.5325C69.9767 78.2375 70.5967 78.09 71.2667 78.09C72.4067 78.09 73.2767 78.515 73.8767 79.365V75.12H76.1717V86.25H73.8767V85.065C73.2967 85.915 72.4467 86.34 71.3267 86.34ZM71.8667 84.48C72.4267 84.48 72.9017 84.29 73.2917 83.91C73.6817 83.53 73.8767 82.975 73.8767 82.245C73.8767 81.515 73.6817 80.96 73.2917 80.58C72.9017 80.2 72.4267 80.01 71.8667 80.01C71.1767 80.01 70.6692 80.22 70.3442 80.64C70.0192 81.06 69.8467 81.595 69.8267 82.245C69.8367 82.895 70.0042 83.43 70.3292 83.85C70.6542 84.27 71.1667 84.48 71.8667 84.48ZM12.6668 103.25H11.4668V98.6H5.13678V103.25H3.93678V92.75H5.13678V97.505H11.4668V92.75H12.6668V103.25ZM21.591 103.295C20.401 103.295 19.436 102.925 18.696 102.185C17.956 101.445 17.586 100.48 17.586 99.29C17.586 98.08 17.966 97.115 18.726 96.395C19.486 95.675 20.441 95.315 21.591 95.315C22.096 95.315 22.586 95.395 23.061 95.555C23.541 95.715 23.971 95.96 24.351 96.29C24.731 96.615 25.0335 97.0275 25.2585 97.5275C25.4835 98.0225 25.596 98.61 25.596 99.29C25.596 100.14 25.4135 100.862 25.0485 101.457C24.6285 102.107 24.111 102.577 23.496 102.867C22.886 103.152 22.251 103.295 21.591 103.295ZM21.591 102.275C22.056 102.275 22.506 102.175 22.941 101.975C23.376 101.775 23.7385 101.447 24.0285 100.992C24.2935 100.557 24.426 99.995 24.426 99.305C24.426 98.485 24.176 97.7875 23.676 97.2125C23.176 96.6375 22.481 96.35 21.591 96.35C20.701 96.35 20.006 96.6375 19.506 97.2125C19.006 97.7875 18.756 98.485 18.756 99.305C18.756 99.985 18.886 100.542 19.146 100.977C19.411 101.412 19.756 101.737 20.181 101.952C20.611 102.167 21.081 102.275 21.591 102.275ZM31.8534 103.295C31.4334 103.295 31.0559 103.147 30.7209 102.852C30.3859 102.557 30.2184 102.06 30.2184 101.36V92.12H31.3734V101.225C31.3734 101.885 31.6234 102.215 32.1234 102.215C32.4034 102.215 32.6834 102.105 32.9634 101.885L33.1884 102.83C32.7484 103.14 32.3034 103.295 31.8534 103.295ZM40.419 103.31C39.299 103.31 38.384 102.947 37.674 102.222C36.964 101.497 36.609 100.52 36.609 99.29C36.609 98.06 36.969 97.0875 37.689 96.3725C38.409 95.6575 39.314 95.3 40.404 95.3C41.824 95.3 42.854 95.89 43.494 97.07V92.12H44.664V103.25H43.494V101.555C42.844 102.725 41.819 103.31 40.419 103.31ZM40.644 102.305C41.474 102.305 42.1565 102.025 42.6915 101.465C43.2265 100.905 43.494 100.19 43.494 99.32C43.494 98.49 43.2365 97.7825 42.7215 97.1975C42.2065 96.6125 41.514 96.32 40.644 96.32C39.754 96.32 39.054 96.615 38.544 97.205C38.034 97.795 37.779 98.5 37.779 99.32C37.779 100.16 38.034 100.867 38.544 101.442C39.054 102.017 39.754 102.305 40.644 102.305ZM50.8547 93.89C50.5997 93.89 50.4072 93.8075 50.2772 93.6425C50.1522 93.4725 50.0897 93.29 50.0897 93.095C50.0897 92.875 50.1572 92.685 50.2922 92.525C50.4322 92.365 50.6197 92.285 50.8547 92.285C51.0897 92.285 51.2747 92.365 51.4097 92.525C51.5497 92.685 51.6197 92.875 51.6197 93.095C51.6197 93.29 51.5547 93.4725 51.4247 93.6425C51.2997 93.8075 51.1097 93.89 50.8547 93.89ZM51.4397 103.25H50.2847V95.36H51.4397V103.25ZM64.2137 103.25H63.0437V98.69C63.0437 97.93 62.8337 97.365 62.4137 96.995C61.9937 96.625 61.4587 96.44 60.8087 96.44C59.9387 96.49 59.2912 96.7475 58.8662 97.2125C58.4412 97.6775 58.2037 98.28 58.1537 99.02V103.25H56.9837V95.36H58.1537V97.1C58.7437 95.91 59.7637 95.315 61.2137 95.315C61.9237 95.315 62.4987 95.4475 62.9387 95.7125C63.3787 95.9775 63.7012 96.3425 63.9062 96.8075C64.1112 97.2725 64.2137 97.8 64.2137 98.39V103.25ZM72.4521 106.19C71.2921 106.19 70.2121 105.805 69.2121 105.035L69.7521 104.18C70.5221 104.85 71.4071 105.185 72.4071 105.185C73.2071 105.185 73.8821 104.958 74.4321 104.503C74.9821 104.048 75.2571 103.365 75.2571 102.455V101.255C74.6571 102.355 73.6871 102.905 72.3471 102.905C71.3071 102.905 70.4471 102.562 69.7671 101.877C69.0871 101.192 68.7471 100.265 68.7471 99.095C68.7471 97.925 69.0721 97.0175 69.7221 96.3725C70.3721 95.7275 71.2371 95.375 72.3171 95.315C73.6871 95.335 74.6671 95.885 75.2571 96.965V95.36H76.4271V102.425C76.4271 103.265 76.2521 103.963 75.9021 104.518C75.5221 105.103 75.0296 105.528 74.4246 105.793C73.8196 106.058 73.1621 106.19 72.4521 106.19ZM72.5571 101.945C73.4271 101.945 74.0946 101.665 74.5596 101.105C75.0246 100.545 75.2571 99.885 75.2571 99.125C75.2571 98.305 75.0071 97.6275 74.5071 97.0925C74.0071 96.5575 73.3571 96.29 72.5571 96.29C71.6971 96.29 71.0371 96.5525 70.5771 97.0775C70.1171 97.6025 69.8721 98.285 69.8421 99.125C69.8721 99.945 70.1171 100.62 70.5771 101.15C71.0371 101.68 71.6971 101.945 72.5571 101.945Z" fill="white"/>
<path d="M43.7615 0L38.7663 8.68344L28.7596 26.034L23.7644 34.7174L18.7529 43.4008L13.7577 52.0679H3.75098L8.74617 43.4008L13.7577 34.7174L18.7529 26.034L23.7644 17.3505L28.7596 8.68344L33.7548 0H43.7615Z" fill="#7184C7"/>
<path d="M38.6196 43.6298L33.755 52.0679H23.7646L28.7598 43.4008L33.7714 34.7174L43.7618 17.3505L53.7685 0L58.7637 8.66709L58.6331 8.91238L53.6215 17.5958L48.6264 26.2629L43.6312 34.9463H43.6148L38.6196 43.6298Z" fill="#374B94"/>
<path d="M75.202 40.343C75.202 46.8188 69.9619 52.0681 63.4812 52.0681H37.8359L42.7005 43.6136L42.8311 43.3847H61.2611C64.5912 43.3847 66.6807 39.7707 65.0157 36.8762C64.6239 36.2057 64.0852 35.6661 63.4322 35.29C62.7793 34.9139 62.0447 34.7176 61.2611 34.7176H53.752L55.4171 31.8231L56.2496 30.3677C57.8004 27.6858 60.6571 26.0342 63.7587 26.0342C65.3095 26.0342 66.795 26.443 68.0846 27.1952C69.3742 27.9475 70.4843 29.0268 71.2515 30.3677L73.4879 34.2434C73.5859 34.4069 73.6838 34.5704 73.7654 34.734C74.6633 36.402 75.1856 38.2989 75.1856 40.3267L75.202 40.343Z" fill="#102260"/>
<path d="M13.6024 29.6147L8.60722 38.2982L3.5957 29.6311L13.6024 29.6147Z" fill="#C0CDFA"/>
</svg>
