<svg width="126" height="36" viewBox="0 0 126 36" fill="none" xmlns="http://www.w3.org/2000/svg">
<path d="M73.3722 14H70.8372L70.0122 11.96H65.1522L64.3272 14H61.8822L66.4422 3.5H68.8872L73.3722 14ZM69.2472 10.055L67.5972 5.975L65.9322 10.055H69.2472ZM83.0141 14H80.7041V9.605C80.7041 9.135 80.5816 8.7425 80.3366 8.4275C80.0916 8.1125 79.6841 7.955 79.1141 7.955C78.4641 8.025 77.9916 8.2525 77.6966 8.6375C77.4016 9.0225 77.2541 9.485 77.2541 10.025V14H74.9441V2.87H77.2541V7.355C77.8341 6.365 78.7641 5.86 80.0441 5.84C80.8941 5.84 81.6016 6.095 82.1666 6.605C82.7316 7.115 83.0141 7.89 83.0141 8.93V14ZM93.4962 14H91.1862V9.605C91.1862 9.135 91.0637 8.7425 90.8187 8.4275C90.5737 8.1125 90.1662 7.955 89.5962 7.955C88.9462 8.025 88.4762 8.2525 88.1862 8.6375C87.8962 9.0225 87.7512 9.485 87.7512 10.025V14H85.4412V5.93H87.7512V7.34C88.3312 6.34 89.2612 5.84 90.5412 5.84C91.0462 5.84 91.5237 5.9425 91.9737 6.1475C92.4237 6.3475 92.7937 6.6775 93.0837 7.1375C93.3587 7.5925 93.4962 8.19 93.4962 8.93V14ZM99.5996 14.09C98.6596 14.09 97.8671 13.905 97.2221 13.535C96.5471 13.14 96.0521 12.63 95.7371 12.005C95.4221 11.38 95.2646 10.7 95.2646 9.965C95.2646 9.065 95.4571 8.31 95.8421 7.7C96.2571 7.065 96.7946 6.6 97.4546 6.305C98.1146 6.005 98.8296 5.855 99.5996 5.855C100.83 5.855 101.857 6.205 102.682 6.905C103.507 7.605 103.92 8.625 103.92 9.965C103.92 10.495 103.835 11.0075 103.665 11.5025C103.5 11.9925 103.24 12.4325 102.885 12.8225C102.535 13.2125 102.087 13.5225 101.542 13.7525C100.997 13.9775 100.35 14.09 99.5996 14.09ZM99.5996 12.215C100.15 12.215 100.622 12.0275 101.017 11.6525C101.412 11.2775 101.61 10.725 101.61 9.995C101.61 9.265 101.412 8.7125 101.017 8.3375C100.622 7.9625 100.15 7.775 99.5996 7.775C99.0396 7.775 98.5621 7.9625 98.1671 8.3375C97.7721 8.7125 97.5746 9.265 97.5746 9.995C97.5746 10.725 97.7721 11.2775 98.1671 11.6525C98.5621 12.0275 99.0396 12.215 99.5996 12.215ZM108.567 14.09C108.057 14.09 107.579 13.9875 107.134 13.7825C106.694 13.5775 106.334 13.24 106.054 12.77C105.789 12.315 105.657 11.725 105.657 11V5.93H107.967V10.34C107.967 10.93 108.114 11.35 108.409 11.6C108.704 11.85 109.062 11.975 109.482 11.975C110.102 11.895 110.554 11.665 110.839 11.285C111.124 10.905 111.267 10.45 111.267 9.92V5.93H113.562V14H111.267V12.575C110.677 13.585 109.777 14.09 108.567 14.09ZM119.369 14.09C118.529 14.09 117.827 13.905 117.262 13.535C116.672 13.135 116.239 12.62 115.964 11.99C115.694 11.355 115.559 10.67 115.559 9.935C115.559 9.015 115.727 8.255 116.062 7.655C116.417 7.03 116.879 6.5725 117.449 6.2825C118.019 5.9875 118.639 5.84 119.309 5.84C120.449 5.84 121.319 6.265 121.919 7.115V2.87H124.214V14H121.919V12.815C121.339 13.665 120.489 14.09 119.369 14.09ZM119.909 12.23C120.469 12.23 120.944 12.04 121.334 11.66C121.724 11.28 121.919 10.725 121.919 9.995C121.919 9.265 121.724 8.71 121.334 8.33C120.944 7.95 120.469 7.76 119.909 7.76C119.219 7.76 118.712 7.97 118.387 8.39C118.062 8.81 117.889 9.345 117.869 9.995C117.879 10.645 118.047 11.18 118.372 11.6C118.697 12.02 119.209 12.23 119.909 12.23ZM72.2472 31H71.0472V26.35H64.7172V31H63.5172V20.5H64.7172V25.255H71.0472V20.5H72.2472V31ZM78.9214 31.045C77.7314 31.045 76.7664 30.675 76.0264 29.935C75.2864 29.195 74.9164 28.23 74.9164 27.04C74.9164 25.83 75.2964 24.865 76.0564 24.145C76.8164 23.425 77.7714 23.065 78.9214 23.065C79.4264 23.065 79.9164 23.145 80.3914 23.305C80.8714 23.465 81.3014 23.71 81.6814 24.04C82.0614 24.365 82.3639 24.7775 82.5889 25.2775C82.8139 25.7725 82.9264 26.36 82.9264 27.04C82.9264 27.89 82.7439 28.6125 82.3789 29.2075C81.9589 29.8575 81.4414 30.3275 80.8264 30.6175C80.2164 30.9025 79.5814 31.045 78.9214 31.045ZM78.9214 30.025C79.3864 30.025 79.8364 29.925 80.2714 29.725C80.7064 29.525 81.0689 29.1975 81.3589 28.7425C81.6239 28.3075 81.7564 27.745 81.7564 27.055C81.7564 26.235 81.5064 25.5375 81.0064 24.9625C80.5064 24.3875 79.8114 24.1 78.9214 24.1C78.0314 24.1 77.3364 24.3875 76.8364 24.9625C76.3364 25.5375 76.0864 26.235 76.0864 27.055C76.0864 27.735 76.2164 28.2925 76.4764 28.7275C76.7414 29.1625 77.0864 29.4875 77.5114 29.7025C77.9414 29.9175 78.4114 30.025 78.9214 30.025ZM86.9339 31.045C86.5139 31.045 86.1364 30.8975 85.8014 30.6025C85.4664 30.3075 85.2989 29.81 85.2989 29.11V19.87H86.4539V28.975C86.4539 29.635 86.7039 29.965 87.2039 29.965C87.4839 29.965 87.7639 29.855 88.0439 29.635L88.2689 30.58C87.8289 30.89 87.3839 31.045 86.9339 31.045ZM93.2495 31.06C92.1295 31.06 91.2145 30.6975 90.5045 29.9725C89.7945 29.2475 89.4395 28.27 89.4395 27.04C89.4395 25.81 89.7995 24.8375 90.5195 24.1225C91.2395 23.4075 92.1445 23.05 93.2345 23.05C94.6545 23.05 95.6845 23.64 96.3245 24.82V19.87H97.4945V31H96.3245V29.305C95.6745 30.475 94.6495 31.06 93.2495 31.06ZM93.4745 30.055C94.3045 30.055 94.987 29.775 95.522 29.215C96.057 28.655 96.3245 27.94 96.3245 27.07C96.3245 26.24 96.067 25.5325 95.552 24.9475C95.037 24.3625 94.3445 24.07 93.4745 24.07C92.5845 24.07 91.8845 24.365 91.3745 24.955C90.8645 25.545 90.6095 26.25 90.6095 27.07C90.6095 27.91 90.8645 28.6175 91.3745 29.1925C91.8845 29.7675 92.5845 30.055 93.4745 30.055ZM101.435 21.64C101.18 21.64 100.988 21.5575 100.858 21.3925C100.733 21.2225 100.67 21.04 100.67 20.845C100.67 20.625 100.738 20.435 100.873 20.275C101.013 20.115 101.2 20.035 101.435 20.035C101.67 20.035 101.855 20.115 101.99 20.275C102.13 20.435 102.2 20.625 102.2 20.845C102.2 21.04 102.135 21.2225 102.005 21.3925C101.88 21.5575 101.69 21.64 101.435 21.64ZM102.02 31H100.865V23.11H102.02V31ZM112.544 31H111.374V26.44C111.374 25.68 111.164 25.115 110.744 24.745C110.324 24.375 109.789 24.19 109.139 24.19C108.269 24.24 107.622 24.4975 107.197 24.9625C106.772 25.4275 106.534 26.03 106.484 26.77V31H105.314V23.11H106.484V24.85C107.074 23.66 108.094 23.065 109.544 23.065C110.254 23.065 110.829 23.1975 111.269 23.4625C111.709 23.7275 112.032 24.0925 112.237 24.5575C112.442 25.0225 112.544 25.55 112.544 26.14V31ZM118.533 33.94C117.373 33.94 116.293 33.555 115.293 32.785L115.833 31.93C116.603 32.6 117.488 32.935 118.488 32.935C119.288 32.935 119.963 32.7075 120.513 32.2525C121.063 31.7975 121.338 31.115 121.338 30.205V29.005C120.738 30.105 119.768 30.655 118.428 30.655C117.388 30.655 116.528 30.3125 115.848 29.6275C115.168 28.9425 114.828 28.015 114.828 26.845C114.828 25.675 115.153 24.7675 115.803 24.1225C116.453 23.4775 117.318 23.125 118.398 23.065C119.768 23.085 120.748 23.635 121.338 24.715V23.11H122.508V30.175C122.508 31.015 122.333 31.7125 121.983 32.2675C121.603 32.8525 121.11 33.2775 120.505 33.5425C119.9 33.8075 119.243 33.94 118.533 33.94ZM118.638 29.695C119.508 29.695 120.175 29.415 120.64 28.855C121.105 28.295 121.338 27.635 121.338 26.875C121.338 26.055 121.088 25.3775 120.588 24.8425C120.088 24.3075 119.438 24.04 118.638 24.04C117.778 24.04 117.118 24.3025 116.658 24.8275C116.198 25.3525 115.953 26.035 115.923 26.875C115.953 27.695 116.198 28.37 116.658 28.9C117.118 29.43 117.778 29.695 118.638 29.695Z" fill="white"/>
<path d="M27.3979 0L23.9773 5.94613L17.1251 17.8272L13.7045 23.7733L10.2728 29.7194L6.85226 35.6544H0L3.42054 29.7194L6.85226 23.7733L10.2728 17.8272L13.7045 11.8811L17.1251 5.94613L20.5456 0H27.3979Z" fill="#7184C7"/>
<path d="M23.8768 29.8762L20.5457 35.6544H13.7046L17.1251 29.7194L20.5569 23.7733L27.3979 11.8811L34.2502 0L37.6707 5.93493L37.5813 6.1029L34.1496 12.049L30.7291 17.984L27.3085 23.9301H27.2973L23.8768 29.8762Z" fill="#374B94"/>
<path d="M48.9273 27.6256C48.9273 32.06 45.3391 35.6546 40.9014 35.6546H23.3403L26.6715 29.8652L26.7609 29.7085H39.3811C41.6615 29.7085 43.0923 27.2337 41.9521 25.2517C41.6838 24.7925 41.3149 24.423 40.8678 24.1655C40.4207 23.9079 39.9177 23.7735 39.3811 23.7735H34.2391L35.3793 21.7915L35.9494 20.7949C37.0113 18.9584 38.9675 17.8274 41.0914 17.8274C42.1533 17.8274 43.1705 18.1073 44.0536 18.6224C44.9367 19.1376 45.6968 19.8766 46.2222 20.7949L47.7536 23.4488C47.8207 23.5608 47.8878 23.6727 47.9436 23.7847C48.5584 24.9269 48.9162 26.2259 48.9162 27.6144L48.9273 27.6256Z" fill="#102260"/>
<path d="M7.70187 11.3772L4.28133 17.3233L0.849609 11.3884L7.70187 11.3772Z" fill="#C0CDFA"/>
</svg>
