<svg width="250" height="183" viewBox="0 0 250 183" fill="none" xmlns="http://www.w3.org/2000/svg">
<g clip-path="url(#clip0_15_4266)">
<path d="M139.993 0L122.515 30.3825L87.5029 91.0904L70.0251 121.473L52.4903 151.856L35.0126 182.181H0L17.4777 151.856L35.0126 121.473L52.4903 91.0904L70.0251 60.7079L87.5029 30.3825L104.981 0H139.993Z" fill="#7184C7"/>
<path d="M122.001 152.657L104.981 182.181H70.0251L87.5029 151.856L105.038 121.473L139.993 60.7079L175.006 0L192.483 30.3253L192.027 31.1836L174.492 61.5661L157.014 91.8915L139.536 122.274H139.479L122.001 152.657Z" fill="#374B94"/>
<path d="M250 141.156C250 163.814 231.666 182.181 208.99 182.181H119.26L136.281 152.599L136.737 151.798H201.222C212.874 151.798 220.185 139.153 214.359 129.026C212.988 126.68 211.104 124.792 208.819 123.475C206.534 122.159 203.964 121.473 201.222 121.473H174.949L180.774 111.345L183.687 106.253C189.114 96.8693 199.109 91.0903 209.961 91.0903C215.387 91.0903 220.585 92.5208 225.097 95.1528C229.609 97.7848 233.493 101.561 236.178 106.253L244.003 119.814C244.345 120.386 244.688 120.958 244.974 121.53C248.115 127.366 249.943 134.004 249.943 141.099L250 141.156Z" fill="#102260"/>
<path d="M39.3534 58.1333L21.8757 88.5159L4.34082 58.1905L39.3534 58.1333Z" fill="#C0CDFA"/>
</g>
<defs>
<clipPath id="clip0_15_4266">
<rect width="250" height="182.181" fill="white"/>
</clipPath>
</defs>
</svg>
